<svg xmlns="http://www.w3.org/2000/svg" xml:space="preserve" width="24" height="24" viewBox="0 0 6.35 6.35"><path d="M1.058 0C.472 0 0 .472 0 1.058v4.234C0 5.878.472 6.35 1.058 6.35h4.234c.586 0 1.058-.472 1.058-1.058V1.058C6.35.472 5.878 0 5.292 0zm.001 1.058h.364c.09.004.18.046.243.11l1.51 1.51 1.52-1.51c.094-.08.158-.107.243-.11h.353v.353c0 .101-.013.195-.089.265l-1.51 1.51 1.5 1.5c.066.066.099.16.099.253v.353h-.353a.36.36 0 0 1-.253-.1l-1.51-1.51-1.51 1.51a.36.36 0 0 1-.254.1H1.06v-.353c0-.094.033-.187.1-.253l1.51-1.5-1.51-1.51a.32.32 0 0 1-.1-.265z" style="fill:#2e3436;fill-opacity:1;stroke-width:1"/></svg>