<svg xmlns="http://www.w3.org/2000/svg" xml:space="preserve" width="24" height="24" viewBox="0 0 6.35 6.35"><path d="M1.058 0C.472 0 0 .472 0 1.058v4.234C0 5.878.472 6.35 1.058 6.35h4.234c.586 0 1.058-.472 1.058-1.058V1.058C6.35.472 5.878 0 5.292 0zM.992 1.19H2.63c.226 0 .397.1.522.184.007.004.005.005.012.01a.9.9 0 0 1 .558-.193h1.637v3.575H3.72c-.105 0-.35.191-.35.191l-.194.202-.196-.2s-.05-.049-.127-.101a.5.5 0 0 0-.225-.092H.992zm.546.55v2.476h1.091c.228 0 .403.099.528.184l.009.007a.92.92 0 0 1 .555-.19h1.091V1.74H3.721c-.104 0-.35.193-.35.193l-.19.196-.196-.19s-.053-.053-.134-.107a.6.6 0 0 0-.222-.092zm.273.55h.818v.55h-.818zm1.91 0h.818v.55h-.818zm-1.91.826h.818v.55h-.818zm1.91 0h.818v.55h-.818z" style="fill:#2e3436;fill-opacity:1;stroke-width:1"/></svg>