<svg xmlns="http://www.w3.org/2000/svg" width="16" height="16">
    <path d="M4 0C1.784 0 0 1.784 0 4v8c0 2.216 1.784 4 4 4h8c2.216 0 4-1.784 4-4V4c0-2.216-1.784-4-4-4zm1.666 2h4.668c1.333 0 1.332 1.375 1.332 1.375H13V4.75H3V3.375h1.334C4.334 2 5.666 2 5.666 2m0 .688v.687h4.668v-.687zm-2 2.75H5v6.187h6V5.438h1.334v6.187S12.334 13 11 13H5s-1.334 0-1.334-1.375zm2.668.687H7v4.125h-.666zm1.332 0h.668v4.125h-.668zm1.334 0h.666v4.125H9z" style="fill:#2e3436;fill-opacity:1;stroke-width:3.77953"/>
</svg>
