<svg xmlns="http://www.w3.org/2000/svg" width="24" height="24">
    <path d="M4 0C1.784 0 0 1.784 0 4v16c0 2.216 1.784 4 4 4h16c2.216 0 4-1.784 4-4V4c0-2.216-1.784-4-4-4Z" class="bg" style="display:inline;fill:#2e3436;stroke-width:3.77953"/>
    <path d="M5.078 4h9.615A4.803 4.803 0 0 1 19.5 8.8V20H8.285c-1.454 0-2.747-.612-3.568-1.537-.821-.926-1.207-2.096-1.217-3.25s.357-2.336 1.182-3.272c.824-.935 2.131-1.54 3.603-1.54h8.012V8.8c0-.615-.915-1.598-1.604-1.598H5.078Zm3.207 9.6c-.678 0-.97.194-1.203.459-.233.264-.382.679-.379 1.125s.167.88.41 1.154c.244.274.533.459 1.172.459h8.012V13.6Z" class="tx" style="display:inline;fill:#2e3436;stroke-width:3.77953"/>
</svg>
