<svg xmlns="http://www.w3.org/2000/svg" width="40" height="40" viewBox="0 0 10.583 10.583">
    <path d="m6.085 0 .265 1.058H2.117l.26-1.045A2.64 2.64 0 0 0 0 2.646v5.291a2.64 2.64 0 0 0 2.646 2.646h1.277l6.66-6.66V2.646A2.64 2.64 0 0 0 7.937 0zM2.117 1.323H6.35v5.292H2.117zm8.466 4.097L5.42 10.583h2.517a2.64 2.64 0 0 0 2.646-2.646zM2.381 6.88h3.704l-.793 1.057H3.175zm1.323 1.322h1.058V9.37l-1.058 1.058z" style="fill:#000;stroke-width:1.32292;stroke-linecap:square;stroke-linejoin:round;paint-order:stroke fill markers"/>
</svg>
