<svg xmlns="http://www.w3.org/2000/svg" width="236" height="50" viewBox="0 0 62.442 13.229">
    <path d="m6.085 0 .265 1.058H2.117l.26-1.045A2.64 2.64 0 0 0 0 2.646v5.29a2.64 2.64 0 0 0 2.646 2.647h1.277l6.66-6.66V2.646A2.64 2.64 0 0 0 7.937 0zM2.117 1.323H6.35v5.292H2.117zm8.466 4.097L5.42 10.583h2.517a2.64 2.64 0 0 0 2.646-2.646zM2.382 6.878h3.703l-.793 1.058H3.175zm1.322 1.323h1.058V9.37l-1.058 1.058z" style="fill:#000;stroke-width:1.32292;stroke-linecap:square;stroke-linejoin:round;paint-order:stroke fill markers"/>
    <path d="M14.581 4.904c-1.768 0-2.94 1.192-2.94 2.993 0 1.697 1.08 2.81 2.768 2.81 1.757 0 2.951-1.193 2.951-2.982 0-1.71-1.091-2.821-2.779-2.821m-.126 1.238c.861 0 1.412.676 1.412 1.72 0 .998-.505 1.617-1.331 1.617-.862 0-1.413-.665-1.413-1.708 0-.998.505-1.63 1.332-1.63" style="fill:#000;stroke-width:1.32292;stroke-linecap:square;stroke-linejoin:round;paint-order:stroke fill markers"/>
    <path d="m17.888 5.018 1.93 5.574h1.4l1.25-3.939 1.357 3.939h1.47l1.86-5.574h-1.436l-1.13 3.966-1.27-3.943h-1.47l-1.247 4.081-1.106-4.104Z" style="fill:#000;stroke-width:1.32292;stroke-linecap:square;stroke-linejoin:round;paint-order:stroke fill markers"/>
    <path d="M28.039 2.117v7.018c0 .963.586 1.548 1.562 1.548.356 0 .77-.08 1.068-.206l-.299-.987c-.126.046-.252.07-.356.07-.344 0-.528-.219-.528-.609V2.117Z" style="fill:#000;stroke-width:1.32292;stroke-linecap:square;stroke-linejoin:round;paint-order:stroke fill markers"/>
    <path d="M32.276 2.185c-.54 0-.895.356-.895.906s.355.906.895.906c.551 0 .908-.355.908-.906 0-.55-.357-.906-.908-.906m-.735 2.833v5.574H33V5.018z" style="fill:#000;stroke-width:1.32292;stroke-linecap:square;stroke-linejoin:round;paint-order:stroke fill markers"/>
    <path d="M36.916 4.904c-1.54 0-2.596 1.17-2.596 2.947 0 1.731.988 2.855 2.412 2.855.61 0 1.135-.211 1.539-.591v.453c0 .964-.529 1.468-1.528 1.468-.47 0-1.045-.126-1.538-.332l-.288 1.1a4.2 4.2 0 0 0 1.837.425c1.78 0 2.952-1.09 2.952-2.718V5.018h-1.034l-.186.5c-.38-.401-.912-.614-1.57-.614m.206 1.237c.484 0 .886.203 1.149.574v2.282c-.254.304-.628.481-1.08.481-.85 0-1.39-.665-1.39-1.72 0-.987.495-1.617 1.321-1.617" style="fill:#000;stroke-width:1.32292;stroke-linecap:square;stroke-linejoin:round;paint-order:stroke fill markers"/>
    <path d="M41.371 2.117v8.475h1.447V6.647a1.57 1.57 0 0 1 1.113-.448c.735 0 1.103.402 1.103 1.159v3.234h1.458V7.105c0-1.342-.792-2.179-2.055-2.179-.597 0-1.155.196-1.62.592V2.117Z" style="fill:#000;stroke-width:1.32292;stroke-linecap:square;stroke-linejoin:round;paint-order:stroke fill markers"/>
    <path d="M48.26 3.401v1.617h-.769v1.17h.77v2.649c0 1.135.746 1.835 1.986 1.835.39 0 .792-.069 1.16-.195l-.299-1.044c-.16.069-.367.103-.54.103-.528 0-.861-.31-.861-.78V6.189h1.412v-1.17h-1.412V3.401Z" style="fill:#000;stroke-width:1.32292;stroke-linecap:square;stroke-linejoin:round;paint-order:stroke fill markers"/>
    <path d="M54.875 4.904c-1.665 0-2.78 1.192-2.78 2.924 0 1.789 1.16 2.878 3.066 2.878.666 0 1.367-.126 1.976-.378l-.322-1.021a3.8 3.8 0 0 1-1.412.287c-1.009 0-1.624-.466-1.798-1.376h3.624c.034-.23.057-.574.057-.838 0-1.513-.93-2.476-2.411-2.476m-.104 1.135c.724 0 1.137.458 1.137 1.284h-2.34c.08-.842.504-1.284 1.203-1.284" style="fill:#000;stroke-width:1.32292;stroke-linecap:square;stroke-linejoin:round;paint-order:stroke fill markers"/>
    <path d="M61.615 4.972c-.668 0-1.29.323-1.707.88l-.142-.834h-1.16v5.574h1.459V6.984a1.7 1.7 0 0 1 1.32-.636c.242 0 .505.046.712.115l.345-1.342a2.4 2.4 0 0 0-.827-.149" style="fill:#000;stroke-width:1.32292;stroke-linecap:square;stroke-linejoin:round;paint-order:stroke fill markers"/>
</svg>
