<svg xmlns="http://www.w3.org/2000/svg" xml:space="preserve" width="24" height="24" viewBox="0 0 6.35 6.35"><path d="M1.058 0C.472 0 0 .472 0 1.058v4.234C0 5.878.472 6.35 1.058 6.35h4.234c.586 0 1.058-.472 1.058-1.058V1.058C6.35.472 5.878 0 5.292 0zm2.117 1.058q.104 0 .204.01l.126.633q.157.033.301.094l.476-.444c.12.07.226.156.33.246l-.282.577q.105.113.185.245l.65-.085q.082.186.127.387l-.573.303q.009.074.01.151-.001.076-.01.151l.573.303q-.044.201-.126.387l-.651-.085a1.5 1.5 0 0 1-.185.245l.282.577a2.2 2.2 0 0 1-.33.246l-.476-.444a1.6 1.6 0 0 1-.3.094l-.127.633a2.3 2.3 0 0 1-.408 0l-.126-.633a1.6 1.6 0 0 1-.301-.094l-.476.444a2 2 0 0 1-.33-.246l.282-.577a1.5 1.5 0 0 1-.185-.245l-.65.085a2 2 0 0 1-.127-.387l.573-.303q-.009-.074-.01-.151.001-.076.01-.151l-.573-.303q.044-.201.126-.387l.651.085a1.5 1.5 0 0 1 .185-.245l-.282-.577c.104-.09.21-.176.33-.246l.476.444q.144-.061.3-.094l.127-.633q.1-.01.204-.01m0 1.21a.92.92 0 0 0-.932.907.92.92 0 0 0 .932.907.92.92 0 0 0 .932-.907.92.92 0 0 0-.932-.907" style="fill:#2e3436;fill-opacity:1;stroke-width:1"/></svg>